<?xml version="1.0" encoding="utf-8"?>
<!-- Generator: Adobe Illustrator 24.3.0, SVG Export Plug-In . SVG Version: 6.00 Build 0)  -->
<svg version="1.1" id="Layer_1" xmlns="http://www.w3.org/2000/svg" xmlns:xlink="http://www.w3.org/1999/xlink" x="0px" y="0px"
	 viewBox="0 0 496.1 193.9" style="enable-background:new 0 0 496.1 193.9;" xml:space="preserve">
<style type="text/css">
	.st0{fill:#6E9962;}
	.st1{fill:#439DBF;}
	.st2{font-family:'Rockwell-Regular';}
	.st3{font-size:31.63px;}
	.st4{letter-spacing:3;}
	.st5{enable-background:new    ;}
</style>
<g id="Layer_2_1_">
	<g id="Layer_1-2">
		<path class="st0" d="M77.2,21.8h14V4.2H23.4v17.6h13.8L17,90.2H4.2v17.6H50V90.2H36.2l5.5-17.6h26.9l4.9,17.6H60.3v17.6h51V90.2
			H98.9L77.2,21.8z M46.3,57.3L55.6,26l8.7,31.3L46.3,57.3z"/>
		<path class="st0" d="M196.3,61.8c0-9-1.9-15.8-5.6-20.3c-3.7-4.6-9.2-6.8-16.4-6.8c-7.2,0-14.3,2.6-21.2,7.8v-6.8h-33.9v16.9h11
			v38.7h-11v16.7h45.2V91.2h-11.3V58.7c4.5-3.2,8.9-4.7,13.3-4.7c2.4,0,4.2,0.8,5.2,2.3s1.5,4,1.5,7.4v44.2h34V91.2h-10.9V61.8z"/>
		<path class="st0" d="M292.7,61.8c0-9-1.9-15.8-5.6-20.3s-9.2-6.9-16.4-6.8c-7.2,0-14.3,2.6-21.2,7.8v-6.8h-33.9v16.9h11v38.7h-11
			v16.7h45.2V91.2h-11.3V58.7c4.5-3.2,8.9-4.8,13.3-4.8c2.4,0,4.2,0.8,5.2,2.3s1.5,4,1.5,7.4v44.2h34V91.2h-10.9V61.8z"/>
		<path class="st0" d="M348.3,94.6c-4.7,0.2-9.3-1.6-12.7-4.8c-3.3-3.2-5.2-7.6-5.8-13.2h54c0.1-7.7-1.5-15.4-4.7-22.5
			c-2.8-6.1-7.3-11.3-13-14.9c-6-3.6-12.9-5.4-19.9-5.3c-6.8,0-13.6,1.7-19.5,5.1c-5.9,3.3-10.8,8.1-14.2,14c-3.5,6.1-5.4,13-5.3,20
			c-0.2,6.8,1.6,13.5,5.1,19.4c3.4,5.5,8.4,10,14.2,12.8c6.6,3.1,13.8,4.7,21.1,4.5c8,0,14.9-1.5,20.7-4.4c6-3.1,11-7.7,14.7-13.4
			l-17.9-5.8C359.6,91.8,354,94.6,348.3,94.6z M335.1,52.8c2.7-2.5,6.3-3.7,9.9-3.6c3.8-0.1,7.5,1.4,10.2,4
			c2.9,2.8,4.8,6.5,5.3,10.5h-30.1C331.1,58.9,332.6,55.2,335.1,52.8z"/>
		<text transform="matrix(1 0 0 1 114.98 27.45)" class="st1 st2 st3 st4">The Education</text>
		<g class="st5">
			<path class="st1" d="M4.3,124.4h3.4v27h17.2v3.2H4.3V124.4z"/>
		</g>
		<g class="st5">
			<path class="st1" d="M33.5,147.9c0.5,0.9,1.1,1.7,1.8,2.4c0.7,0.6,1.5,1.1,2.4,1.5c0.9,0.3,1.8,0.5,2.8,0.5c1.6,0,2.9-0.3,4-0.9
				c1.1-0.6,2.1-1.3,3.1-2.3l2.1,1.9c-1.1,1.3-2.4,2.3-3.9,3c-1.5,0.8-3.3,1.1-5.4,1.1c-1.5,0-3-0.3-4.4-0.8
				c-1.4-0.6-2.6-1.4-3.6-2.4c-1-1-1.8-2.2-2.4-3.7c-0.6-1.4-0.9-3-0.9-4.7c0-1.6,0.3-3.1,0.8-4.6s1.3-2.7,2.2-3.7
				c1-1,2.1-1.9,3.4-2.5c1.3-0.6,2.8-0.9,4.3-0.9c1.7,0,3.1,0.3,4.4,0.9c1.3,0.6,2.4,1.5,3.3,2.5c0.9,1.1,1.6,2.3,2,3.8
				c0.5,1.4,0.7,3,0.7,4.6c0,0.1,0,0.3,0,0.5s0,0.4,0,0.6H32.6C32.7,145.9,33,147,33.5,147.9z M47,142.3c-0.1-1-0.3-2-0.6-2.9
				c-0.3-0.9-0.8-1.7-1.4-2.4c-0.6-0.7-1.3-1.2-2.2-1.7c-0.9-0.4-1.8-0.6-3-0.6c-1,0-1.9,0.2-2.7,0.6c-0.8,0.4-1.6,0.9-2.2,1.6
				c-0.6,0.7-1.2,1.5-1.6,2.4c-0.4,0.9-0.7,1.9-0.8,3H47z"/>
		</g>
		<g class="st5">
			<path class="st1" d="M61.4,135.4c-1.1,0.3-2.2,0.7-3.2,1.2l-1-2.7c1.2-0.6,2.5-1,3.8-1.4c1.3-0.3,2.7-0.5,4.4-0.5
				c3.1,0,5.4,0.8,7.1,2.3c1.7,1.5,2.5,3.7,2.5,6.7v13.6h-3.2v-3.4c-0.8,1-1.8,1.9-3.2,2.7c-1.3,0.8-3,1.2-5,1.2
				c-1,0-2.1-0.1-3.1-0.4c-1-0.3-1.9-0.7-2.7-1.3c-0.8-0.6-1.4-1.3-1.9-2.2c-0.5-0.9-0.7-1.9-0.7-3.1c0-1.2,0.2-2.2,0.7-3.1
				c0.5-0.9,1.1-1.7,2-2.3c0.9-0.6,1.9-1.1,3-1.4c1.2-0.3,2.5-0.5,3.9-0.5c1.5,0,2.7,0.1,3.8,0.3c1.1,0.2,2.1,0.4,3.1,0.7v-0.8
				c0-2-0.6-3.5-1.8-4.6s-2.8-1.5-4.9-1.5C63.7,135,62.5,135.1,61.4,135.4z M60.3,144.6c-1.1,0.8-1.7,2-1.7,3.4
				c0,0.7,0.2,1.4,0.5,1.9c0.3,0.5,0.7,1,1.2,1.4c0.5,0.4,1.1,0.7,1.8,0.9c0.7,0.2,1.4,0.3,2.1,0.3c1,0,2-0.2,2.9-0.5
				c0.9-0.3,1.7-0.7,2.4-1.3c0.7-0.5,1.2-1.2,1.6-1.9c0.4-0.7,0.6-1.5,0.6-2.4v-2.2c-0.8-0.2-1.8-0.4-2.9-0.6
				c-1.1-0.2-2.3-0.3-3.7-0.3C63.1,143.3,61.5,143.8,60.3,144.6z"/>
		</g>
		<g class="st5">
			<path class="st1" d="M86.2,154.6h-3.4v-22.3h3.4v5.8c0.4-0.9,0.9-1.8,1.5-2.5c0.6-0.8,1.3-1.4,2.1-2c0.8-0.6,1.6-1,2.6-1.3
				c0.9-0.3,1.9-0.4,3-0.4v3.6h-0.3c-1.2,0-2.4,0.2-3.5,0.6s-2,1.1-2.9,1.9c-0.8,0.9-1.5,1.9-1.9,3.2c-0.5,1.3-0.7,2.8-0.7,4.4
				V154.6z"/>
		</g>
		<g class="st5">
			<path class="st1" d="M104.2,154.6h-3.4v-22.3h3.4v3.9c0.8-1.2,1.7-2.2,3-3.1c1.2-0.8,2.8-1.3,4.7-1.3c1.4,0,2.6,0.2,3.6,0.6
				c1.1,0.4,2,1,2.7,1.8c0.7,0.8,1.3,1.7,1.7,2.8c0.4,1.1,0.6,2.3,0.6,3.6v13.8h-3.4v-13c0-2.1-0.5-3.7-1.6-4.9
				c-1.1-1.2-2.6-1.8-4.6-1.8c-1,0-1.9,0.2-2.7,0.5c-0.8,0.3-1.5,0.8-2.2,1.4c-0.6,0.6-1.1,1.4-1.4,2.2s-0.5,1.8-0.5,2.8V154.6z"/>
		</g>
		<g class="st5">
			<path class="st1" d="M128.3,127.5v-3.7h3.8v3.7H128.3z M128.5,154.6v-22.3h3.4v22.3H128.5z"/>
		</g>
		<g class="st5">
			<path class="st1" d="M143.4,154.6h-3.4v-22.3h3.4v3.9c0.8-1.2,1.7-2.2,3-3.1c1.2-0.8,2.8-1.3,4.7-1.3c1.4,0,2.6,0.2,3.6,0.6
				c1.1,0.4,2,1,2.7,1.8c0.7,0.8,1.3,1.7,1.7,2.8c0.4,1.1,0.6,2.3,0.6,3.6v13.8h-3.4v-13c0-2.1-0.5-3.7-1.6-4.9
				c-1.1-1.2-2.6-1.8-4.6-1.8c-1,0-1.9,0.2-2.7,0.5c-0.8,0.3-1.5,0.8-2.2,1.4c-0.6,0.6-1.1,1.4-1.4,2.2s-0.5,1.8-0.5,2.8V154.6z"/>
		</g>
		<g class="st5">
			<path class="st1" d="M188.2,155.5c-0.5,1.4-1.3,2.5-2.3,3.4c-1,0.9-2.2,1.6-3.6,2c-1.4,0.5-3,0.7-4.7,0.7c-1.9,0-3.7-0.3-5.4-0.8
				c-1.7-0.5-3.3-1.3-4.8-2.3l1.5-2.6c1.3,0.9,2.7,1.6,4.1,2.1c1.4,0.5,2.9,0.7,4.6,0.7c2.5,0,4.5-0.7,6-2s2.2-3.3,2.2-5.9v-2.6
				c-1,1.3-2.2,2.4-3.6,3.3c-1.4,0.9-3.2,1.4-5.2,1.4c-1.4,0-2.7-0.2-3.9-0.7c-1.3-0.5-2.4-1.2-3.4-2.1c-1-0.9-1.8-2-2.4-3.3
				c-0.6-1.3-0.9-2.8-0.9-4.4c0-1.6,0.3-3.1,0.9-4.4c0.6-1.3,1.4-2.4,2.4-3.3c1-0.9,2.1-1.6,3.4-2.1c1.3-0.5,2.6-0.7,3.9-0.7
				c1,0,2,0.1,2.9,0.4c0.9,0.2,1.7,0.6,2.4,1c0.7,0.4,1.4,0.9,1.9,1.4c0.6,0.5,1.1,1.1,1.6,1.7v-4h3.4v18.4
				C189,152.6,188.7,154.2,188.2,155.5z M185.1,139.3c-0.5-0.9-1.1-1.7-1.9-2.4c-0.8-0.7-1.6-1.2-2.6-1.5c-1-0.4-2-0.5-3.1-0.5
				c-1.1,0-2.1,0.2-3,0.5c-0.9,0.3-1.8,0.8-2.5,1.5c-0.7,0.7-1.3,1.5-1.7,2.4c-0.4,0.9-0.6,2-0.6,3.1s0.2,2.2,0.6,3.1
				c0.4,0.9,1,1.7,1.7,2.4c0.7,0.7,1.5,1.2,2.5,1.6c0.9,0.4,1.9,0.5,3,0.5c1.1,0,2.1-0.2,3.1-0.5c1-0.4,1.9-0.9,2.6-1.5
				c0.8-0.7,1.4-1.5,1.9-2.4c0.5-0.9,0.7-2,0.7-3.1S185.5,140.2,185.1,139.3z"/>
		</g>
		<g class="st5">
			<path class="st1" d="M233.4,154.6l-8.8-11.7h-8.7v11.7h-3.4v-30.2h13.1c1.7,0,3.2,0.2,4.6,0.6c1.4,0.4,2.5,1,3.5,1.8
				s1.7,1.7,2.2,2.8c0.5,1.1,0.8,2.3,0.8,3.7c0,1.3-0.2,2.4-0.6,3.4c-0.4,1-1,1.9-1.7,2.6c-0.7,0.7-1.6,1.3-2.6,1.8
				c-1,0.5-2.1,0.8-3.3,1l9.4,12.3H233.4z M231,129.2c-1.4-1.1-3.3-1.6-5.8-1.6h-9.4v12.3h9.4c1.1,0,2.2-0.1,3.1-0.4
				c1-0.3,1.8-0.7,2.5-1.2c0.7-0.5,1.2-1.2,1.6-2c0.4-0.8,0.6-1.7,0.6-2.6C233.1,131.7,232.4,130.2,231,129.2z"/>
		</g>
		<g class="st5">
			<path class="st1" d="M246.4,147.9c0.5,0.9,1.1,1.7,1.8,2.4c0.7,0.6,1.5,1.1,2.4,1.5s1.8,0.5,2.8,0.5c1.6,0,2.9-0.3,4-0.9
				c1.1-0.6,2.1-1.3,3.1-2.3l2.1,1.9c-1.1,1.3-2.4,2.3-3.9,3s-3.3,1.1-5.4,1.1c-1.5,0-3-0.3-4.4-0.8s-2.6-1.4-3.6-2.4
				c-1-1-1.8-2.2-2.4-3.7c-0.6-1.4-0.9-3-0.9-4.7c0-1.6,0.3-3.1,0.8-4.6s1.3-2.7,2.2-3.7c1-1,2.1-1.9,3.4-2.5
				c1.3-0.6,2.8-0.9,4.3-0.9c1.7,0,3.1,0.3,4.4,0.9c1.3,0.6,2.4,1.5,3.3,2.5c0.9,1.1,1.6,2.3,2,3.8c0.5,1.4,0.7,3,0.7,4.6
				c0,0.1,0,0.3,0,0.5s0,0.4,0,0.6h-17.8C245.6,145.9,245.9,147,246.4,147.9z M259.9,142.3c-0.1-1-0.3-2-0.6-2.9
				c-0.3-0.9-0.8-1.7-1.4-2.4c-0.6-0.7-1.3-1.2-2.2-1.7s-1.8-0.6-3-0.6c-1,0-1.9,0.2-2.7,0.6c-0.8,0.4-1.6,0.9-2.2,1.6
				c-0.6,0.7-1.2,1.5-1.6,2.4c-0.4,0.9-0.7,1.9-0.8,3H259.9z"/>
		</g>
		<g class="st5">
			<path class="st1" d="M269.9,127.5v-3.7h3.8v3.7H269.9z M270.1,154.6v-22.3h3.4v22.3H270.1z"/>
		</g>
		<g class="st5">
			<path class="st1" d="M300.9,134.6c0.5-0.5,1.1-1,1.7-1.4c0.6-0.4,1.4-0.7,2.2-0.9c0.8-0.2,1.7-0.3,2.7-0.3c2.6,0,4.7,0.8,6.1,2.4
				c1.5,1.6,2.2,3.8,2.2,6.6v13.8h-3.4v-13c0-2.2-0.5-3.8-1.5-5c-1-1.2-2.5-1.7-4.3-1.7c-0.8,0-1.6,0.2-2.4,0.5
				c-0.8,0.3-1.4,0.7-2,1.3c-0.6,0.6-1,1.3-1.4,2.2c-0.3,0.9-0.5,1.8-0.5,2.9v12.9h-3.3v-13.1c0-2.1-0.5-3.7-1.5-4.9
				c-1-1.2-2.4-1.7-4.2-1.7c-0.9,0-1.7,0.2-2.5,0.5c-0.8,0.3-1.4,0.8-2,1.5s-1,1.4-1.3,2.2c-0.3,0.8-0.5,1.8-0.5,2.8v12.7h-3.4
				v-22.3h3.4v3.8c0.4-0.5,0.8-1.1,1.2-1.6c0.5-0.5,1-1,1.5-1.4c0.6-0.4,1.2-0.7,2-0.9c0.7-0.2,1.6-0.3,2.5-0.3
				c1.8,0,3.3,0.4,4.5,1.3c1.2,0.8,2.1,1.9,2.7,3.2C300,135.7,300.4,135.1,300.9,134.6z"/>
		</g>
		<g class="st5">
			<path class="st1" d="M328.2,135.4c-1.1,0.3-2.2,0.7-3.2,1.2l-1-2.7c1.2-0.6,2.5-1,3.8-1.4s2.7-0.5,4.4-0.5c3.1,0,5.4,0.8,7.1,2.3
				c1.7,1.5,2.5,3.7,2.5,6.7v13.6h-3.2v-3.4c-0.8,1-1.8,1.9-3.2,2.7c-1.3,0.8-3,1.2-5,1.2c-1,0-2.1-0.1-3.1-0.4s-1.9-0.7-2.7-1.3
				c-0.8-0.6-1.4-1.3-1.9-2.2c-0.5-0.9-0.7-1.9-0.7-3.1c0-1.2,0.2-2.2,0.7-3.1s1.1-1.7,2-2.3s1.9-1.1,3-1.4c1.2-0.3,2.5-0.5,3.9-0.5
				c1.5,0,2.7,0.1,3.8,0.3c1.1,0.2,2.1,0.4,3.1,0.7v-0.8c0-2-0.6-3.5-1.8-4.6c-1.2-1-2.8-1.5-4.9-1.5
				C330.5,135,329.3,135.1,328.2,135.4z M327.2,144.6c-1.1,0.8-1.7,2-1.7,3.4c0,0.7,0.2,1.4,0.5,1.9c0.3,0.5,0.7,1,1.2,1.4
				s1.1,0.7,1.8,0.9c0.7,0.2,1.4,0.3,2.1,0.3c1,0,2-0.2,2.9-0.5c0.9-0.3,1.7-0.7,2.4-1.3c0.7-0.5,1.2-1.2,1.6-1.9s0.6-1.5,0.6-2.4
				v-2.2c-0.8-0.2-1.8-0.4-2.9-0.6c-1.1-0.2-2.3-0.3-3.7-0.3C329.9,143.3,328.3,143.8,327.2,144.6z"/>
		</g>
		<g class="st5">
			<path class="st1" d="M370.2,155.5c-0.5,1.4-1.3,2.5-2.3,3.4c-1,0.9-2.2,1.6-3.6,2c-1.4,0.5-3,0.7-4.7,0.7c-1.9,0-3.7-0.3-5.4-0.8
				c-1.7-0.5-3.3-1.3-4.8-2.3l1.5-2.6c1.3,0.9,2.7,1.6,4.1,2.1c1.4,0.5,2.9,0.7,4.6,0.7c2.5,0,4.5-0.7,6-2s2.2-3.3,2.2-5.9v-2.6
				c-1,1.3-2.2,2.4-3.6,3.3s-3.2,1.4-5.2,1.4c-1.4,0-2.7-0.2-3.9-0.7c-1.3-0.5-2.4-1.2-3.4-2.1c-1-0.9-1.8-2-2.4-3.3
				c-0.6-1.3-0.9-2.8-0.9-4.4c0-1.6,0.3-3.1,0.9-4.4c0.6-1.3,1.4-2.4,2.4-3.3c1-0.9,2.1-1.6,3.4-2.1c1.3-0.5,2.6-0.7,3.9-0.7
				c1,0,2,0.1,2.9,0.4c0.9,0.2,1.7,0.6,2.4,1c0.7,0.4,1.4,0.9,1.9,1.4c0.6,0.5,1.1,1.1,1.6,1.7v-4h3.4v18.4
				C371,152.6,370.8,154.2,370.2,155.5z M367.1,139.3c-0.5-0.9-1.1-1.7-1.9-2.4c-0.8-0.7-1.6-1.2-2.6-1.5c-1-0.4-2-0.5-3.1-0.5
				c-1.1,0-2.1,0.2-3,0.5c-0.9,0.3-1.8,0.8-2.5,1.5c-0.7,0.7-1.3,1.5-1.7,2.4c-0.4,0.9-0.6,2-0.6,3.1s0.2,2.2,0.6,3.1
				c0.4,0.9,1,1.7,1.7,2.4s1.5,1.2,2.5,1.6c0.9,0.4,1.9,0.5,3,0.5c1.1,0,2.1-0.2,3.1-0.5c1-0.4,1.9-0.9,2.6-1.5
				c0.8-0.7,1.4-1.5,1.9-2.4c0.5-0.9,0.7-2,0.7-3.1S367.6,140.2,367.1,139.3z"/>
		</g>
		<g class="st5">
			<path class="st1" d="M379,127.5v-3.7h3.8v3.7H379z M379.2,154.6v-22.3h3.4v22.3H379.2z"/>
		</g>
		<g class="st5">
			<path class="st1" d="M394.1,154.6h-3.4v-22.3h3.4v3.9c0.8-1.2,1.7-2.2,3-3.1c1.2-0.8,2.8-1.3,4.7-1.3c1.4,0,2.6,0.2,3.6,0.6
				s2,1,2.7,1.8c0.7,0.8,1.3,1.7,1.7,2.8c0.4,1.1,0.6,2.3,0.6,3.6v13.8h-3.4v-13c0-2.1-0.5-3.7-1.6-4.9c-1.1-1.2-2.6-1.8-4.6-1.8
				c-1,0-1.9,0.2-2.7,0.5c-0.8,0.3-1.5,0.8-2.2,1.4c-0.6,0.6-1.1,1.4-1.4,2.2s-0.5,1.8-0.5,2.8V154.6z"/>
		</g>
		<g class="st5">
			<path class="st1" d="M421.3,147.9c0.5,0.9,1.1,1.7,1.8,2.4c0.7,0.6,1.5,1.1,2.4,1.5s1.8,0.5,2.8,0.5c1.6,0,2.9-0.3,4-0.9
				c1.1-0.6,2.1-1.3,3.1-2.3l2.1,1.9c-1.1,1.3-2.4,2.3-3.9,3c-1.5,0.8-3.3,1.1-5.4,1.1c-1.5,0-3-0.3-4.4-0.8s-2.6-1.4-3.6-2.4
				c-1-1-1.8-2.2-2.4-3.7c-0.6-1.4-0.9-3-0.9-4.7c0-1.6,0.3-3.1,0.8-4.6c0.5-1.4,1.3-2.7,2.2-3.7c1-1,2.1-1.9,3.4-2.5
				c1.3-0.6,2.8-0.9,4.3-0.9c1.7,0,3.1,0.3,4.4,0.9c1.3,0.6,2.4,1.5,3.3,2.5c0.9,1.1,1.6,2.3,2,3.8c0.5,1.4,0.7,3,0.7,4.6
				c0,0.1,0,0.3,0,0.5s0,0.4,0,0.6h-17.8C420.5,145.9,420.8,147,421.3,147.9z M434.9,142.3c-0.1-1-0.3-2-0.6-2.9
				c-0.3-0.9-0.8-1.7-1.4-2.4c-0.6-0.7-1.3-1.2-2.2-1.7c-0.9-0.4-1.8-0.6-3-0.6c-1,0-1.9,0.2-2.7,0.6c-0.8,0.4-1.6,0.9-2.2,1.6
				c-0.6,0.7-1.2,1.5-1.6,2.4s-0.7,1.9-0.8,3H434.9z"/>
		</g>
		<g class="st5">
			<path class="st1" d="M463.1,154.6v-4.5c-0.5,0.7-1,1.3-1.5,1.9s-1.2,1.1-1.9,1.6c-0.7,0.5-1.5,0.8-2.3,1.1s-1.8,0.4-2.9,0.4
				c-1.4,0-2.7-0.3-4-0.8c-1.3-0.5-2.4-1.3-3.4-2.3s-1.8-2.2-2.4-3.6c-0.6-1.4-0.9-3.1-0.9-4.9c0-1.8,0.3-3.5,0.9-4.9
				c0.6-1.4,1.4-2.7,2.4-3.6s2.2-1.8,3.4-2.3c1.3-0.5,2.6-0.8,4-0.8c1,0,2,0.1,2.9,0.4c0.9,0.3,1.7,0.6,2.4,1
				c0.7,0.4,1.3,0.9,1.9,1.5s1.1,1.2,1.5,1.8v-13.5h3.4v31.5H463.1z M462.5,139.9c-0.5-1.1-1.1-2-1.8-2.7c-0.8-0.7-1.6-1.3-2.6-1.7
				c-1-0.4-2-0.6-3-0.6c-1.1,0-2.1,0.2-3.1,0.6c-1,0.4-1.8,0.9-2.5,1.7c-0.7,0.7-1.3,1.6-1.7,2.7s-0.6,2.3-0.6,3.6
				c0,1.3,0.2,2.5,0.6,3.6c0.4,1.1,1,2,1.7,2.7c0.7,0.8,1.6,1.3,2.5,1.7c1,0.4,2,0.6,3.1,0.6c1,0,2.1-0.2,3-0.6c1-0.4,1.8-1,2.6-1.7
				c0.8-0.7,1.4-1.7,1.8-2.7c0.5-1.1,0.7-2.3,0.7-3.5C463.2,142.2,463,141,462.5,139.9z"/>
		</g>
		<path class="st0" d="M483.8,91.2l-25.2,0.1c-4.2,0-8.1-2.4-10-6.2l-7.8-15.4l14.5-17.2h9.7V35.6h-21.9l-14,19.9l-8.6-13
			c-2.8-4.3-7.5-6.8-12.6-6.8h-19.7v16.9h9.5c4.3,0,8.2,2.5,10.1,6.3l6.6,13.8l-15.7,18.6h-10.5v16.7h22.5l15.1-20.3l9.4,13.7
			c2.8,4.1,7.5,6.6,12.5,6.6l25-0.1c2.8,0,5,2.2,5,5v57.7c0,2.8-2.2,5-5,5H4.2v18.3l479.6,0.1c6.8,0,12.3-5.5,12.3-12.3v-78.1
			C496.1,96.7,490.6,91.2,483.8,91.2C483.8,91.2,483.8,91.2,483.8,91.2z"/>
	</g>
</g>
</svg>
